<svg viewBox="0 0 144 40" xmlns="http://www.w3.org/2000/svg" fill-rule="evenodd" clip-rule="evenodd" stroke-linejoin="round" stroke-miterlimit="1.414"><path fill="none" d="M0 0h143.84v39.499H0z"/><clipPath id="a"><path d="M0 0h143.84v39.499H0z"/></clipPath><g clip-path="url(#a)"><path d="M33.388 10.276c2.451.153 4.394 2.733 3.675 5.14a3.991 3.991 0 0 1-.893 1.569L16.564 38.233c-1.456 1.508-4.021 1.666-5.584.289-1.591-1.402-1.729-4.087-.295-5.714L30.29 11.56c.678-.702 1.583-1.174 2.552-1.268.352-.035.434-.018.546-.016zm110.618 9.495c0 10.239-8.299 18.538-18.537 18.538-10.239 0-18.538-8.299-18.538-18.538 0-10.238 8.299-18.537 18.538-18.537 10.238 0 18.537 8.299 18.537 18.537zM23.929.025c1.909.119 3.59 1.656 3.814 3.518.138 1.146-.26 2.316-1.032 3.191L7.106 27.982c-1.415 1.466-3.896 1.651-5.446.406-1.648-1.325-1.976-4.005-.554-5.694.039-.047.08-.091.12-.137L20.832 1.309C21.51.607 22.414.135 23.384.041c.352-.035.433-.018.545-.016z" fill="#fff"/></g></svg>